<svg width="128" height="128" viewBox="0 0 128 128" fill="none" xmlns="http://www.w3.org/2000/svg">
<path d="M36.36 93.75C31.77 93.6 27.17 93.83 22.63 94.47C18.73 95.02 14.88 95.89 11.13 97.06C10.22 97.34 9.2 97.57 8.34 98C7.79 98.28 7.34 98.6 6.85 97.99C6.17 97.17 6.62 95.68 6.73 94.74C6.95 92.85 7.2 90.97 7.49 89.09C8.75 80.72 10.44 72.43 11.59 64.04C12.09 60.33 12.5 56.59 12.98 52.88C13.22 50.97 13.49 49.06 13.8 47.16C14.18 44.83 14.26 43.19 16.44 41.78C20.15 39.38 24.6 38.32 28.85 37.29C33.43 36.18 38 35.24 42.74 35.42C46.06 35.55 49.29 36.43 52.22 37.98C53.64 38.73 55 39.61 56.29 40.58C57.57 41.53 59.13 42.55 60.15 43.77C61.06 44.85 61.35 45.83 61.44 46.95C60.81 61.28 60.91 96.81 61.02 99.33C61.03 99.54 61.05 99.75 61.06 99.96C61.01 100.23 60.86 100.44 60.42 100.44C59.89 100.45 59.31 100.1 58.85 99.86C57.9 99.36 56.94 98.88 55.98 98.43C49.77 95.5 43.23 93.97 36.36 93.75ZM121.15 97.98C120.65 98.59 120.21 98.27 119.66 97.99C118.81 97.56 117.79 97.33 116.87 97.05C113.12 95.88 109.27 95.02 105.37 94.46C100.83 93.82 96.22 93.6 91.63 93.74C84.77 93.96 78.23 95.49 72.01 98.42C71.05 98.88 70.09 99.36 69.14 99.85C68.68 100.09 68.1 100.43 67.56 100.43C67.12 100.43 66.97 100.22 66.92 99.95C66.93 99.74 66.96 99.53 66.96 99.32C67.07 96.8 67.18 61.27 66.54 46.94C66.63 45.82 66.92 44.84 67.82 43.76C68.86 42.54 70.41 41.51 71.69 40.57C72.98 39.61 74.33 38.72 75.76 37.97C78.7 36.42 81.92 35.54 85.24 35.41C89.98 35.22 94.55 36.17 99.13 37.28C103.38 38.31 107.83 39.36 111.55 41.77C113.73 43.18 113.81 44.82 114.19 47.15C114.5 49.05 114.77 50.96 115.01 52.87C115.48 56.59 115.89 60.32 116.4 64.03C117.55 72.41 119.25 80.71 120.5 89.08C120.77 90.96 121.04 92.84 121.26 94.73C121.38 95.67 121.83 97.16 121.15 97.98V97.98Z" fill="none"/>
<path d="M126.8 106.82C126.87 105.42 127.51 101.51 127.49 100.75C127.42 91.01 121.24 58.91 120.25 51.09L120.19 50.61C119.85 47.54 119.72 43.89 118.59 40.99C117.45 38.07 113.76 37.05 111.1 36.02C100.09 31.82 87.66 28.28 75.98 31.98C71.42 33.42 67.31 35.99 64.01 40.04C60.72 35.99 56.6 33.42 52.05 31.98C40.37 28.28 27.94 31.82 16.93 36.02C14.27 37.04 10.56 38.06 9.42999 40.99C8.29999 43.89 8.16999 47.53 7.82999 50.61L7.76999 51.09C6.77999 58.91 0.609993 91.01 0.529993 100.75C0.509993 101.52 1.15999 105.42 1.22999 106.82C1.32999 108.84 1.08999 110.87 1.18999 112.88C0.989993 113.58 1.16999 114.24 1.59999 114.76C1.87999 115.3 2.30999 115.63 2.77999 115.8C3.84999 116.98 5.78999 116.2 7.05999 115.8C18.44 112.12 30.95 112.26 42.69 113.82C44.77 114.09 46.84 114.43 48.9 114.83C51.04 115.25 53.07 116.01 55.12 116.74C56.81 117.34 58.58 117.84 60.36 118.18C61.64 118.47 62.89 118.59 63.46 118.6C63.66 118.6 63.84 118.58 64.03 118.57C64.22 118.57 64.41 118.6 64.6 118.6C65.17 118.6 66.42 118.48 67.7 118.18C69.48 117.84 71.25 117.34 72.94 116.74C74.99 116.01 77.03 115.25 79.17 114.83C81.23 114.43 83.3 114.09 85.38 113.82C97.11 112.26 109.63 112.12 121.01 115.8C122.27 116.21 124.21 116.98 125.28 115.8C125.76 115.63 126.18 115.3 126.46 114.76C126.89 114.24 127.07 113.58 126.87 112.88C126.94 110.86 126.7 108.84 126.8 106.82ZM36.36 93.75C31.77 93.6 27.17 93.83 22.63 94.47C18.73 95.02 14.88 95.89 11.13 97.06C10.22 97.34 9.19999 97.57 8.33999 98C7.78999 98.28 7.33999 98.6 6.84999 97.99C6.16999 97.17 6.61999 95.68 6.72999 94.74C6.94999 92.85 7.19999 90.97 7.48999 89.09C8.74999 80.72 10.44 72.43 11.59 64.04C12.09 60.33 12.5 56.59 12.98 52.88C13.22 50.97 13.49 49.06 13.8 47.16C14.18 44.83 14.26 43.19 16.44 41.78C20.15 39.38 24.6 38.32 28.85 37.29C33.43 36.18 38 35.24 42.74 35.42C46.06 35.55 49.29 36.43 52.22 37.98C53.64 38.73 55 39.61 56.29 40.58C57.57 41.53 59.13 42.55 60.15 43.77C61.06 44.85 61.35 45.83 61.44 46.95C60.81 61.28 60.91 96.81 61.02 99.33C61.03 99.54 61.05 99.75 61.06 99.96C61.01 100.23 60.86 100.44 60.42 100.44C59.89 100.45 59.31 100.1 58.85 99.86C57.9 99.36 56.94 98.88 55.98 98.43C49.77 95.5 43.23 93.97 36.36 93.75ZM121.15 97.98C120.65 98.59 120.21 98.27 119.66 97.99C118.81 97.56 117.79 97.33 116.87 97.05C113.12 95.88 109.27 95.02 105.37 94.46C100.83 93.82 96.22 93.6 91.63 93.74C84.77 93.96 78.23 95.49 72.01 98.42C71.05 98.88 70.09 99.36 69.14 99.85C68.68 100.09 68.1 100.43 67.56 100.43C67.12 100.43 66.97 100.22 66.92 99.95C66.93 99.74 66.96 99.53 66.96 99.32C67.07 96.8 67.18 61.27 66.54 46.94C66.63 45.82 66.92 44.84 67.82 43.76C68.86 42.54 70.41 41.51 71.69 40.57C72.98 39.61 74.33 38.72 75.76 37.97C78.7 36.42 81.92 35.54 85.24 35.41C89.98 35.22 94.55 36.17 99.13 37.28C103.38 38.31 107.83 39.36 111.55 41.77C113.73 43.18 113.81 44.82 114.19 47.15C114.5 49.05 114.77 50.96 115.01 52.87C115.48 56.59 115.89 60.32 116.4 64.03C117.55 72.41 119.25 80.71 120.5 89.08C120.77 90.96 121.04 92.84 121.26 94.73C121.38 95.67 121.83 97.16 121.15 97.98V97.98Z" fill="#2F2F2F"/>
<path d="M53.07 46.61C43.6 42.17 30.84 41.93 21.31 46.49C18.79 47.7 20.99 51.35 23.49 50.22C31.6 46.52 42.72 47.08 50.59 50.85C53.43 52.2 55.92 47.95 53.07 46.61ZM52.77 58.31C42.69 53.89 29.73 52.22 19.56 57.46C17.35 58.6 19.29 61.72 21.48 60.74C30.81 56.57 41.99 59.02 51.06 62.38C53.41 63.26 55.08 59.32 52.77 58.31ZM52.24 69.98C51.17 69.08 49.68 68.66 48.39 68.19C39.03 64.77 26.6 64.63 17.61 69.23C15.63 70.24 17.3 73.12 19.25 72.56C24.15 71.17 28.76 70.4 33.85 70.35C37.84 70.31 41.46 70.73 45.27 71.87C46.42 72.21 47.52 72.34 48.62 72.86C49.41 73.23 50.39 73.7 51.26 73.81C53.16 74.04 53.55 71.25 52.48 70.19L52.24 69.98ZM51.25 81.25C40.43 76.15 28.29 77.09 17.34 80.95C15.08 81.75 16.16 85.23 18.46 84.51C23.61 82.89 27.9 81.68 33.37 81.61C38.63 81.55 44.34 83.27 49.16 85.16C51.75 86.19 53.88 82.49 51.25 81.25ZM77.41 50.84C85.28 47.07 96.4 46.52 104.51 50.21C107 51.35 109.21 47.69 106.69 46.48C97.17 41.92 84.41 42.16 74.94 46.6C72.08 47.95 74.56 52.2 77.41 50.84ZM76.95 62.38C86.02 59.02 97.2 56.57 106.53 60.74C108.72 61.72 110.66 58.6 108.45 57.46C98.27 52.22 85.31 53.89 75.24 58.31C72.93 59.32 74.59 63.26 76.95 62.38ZM76.74 73.82C77.62 73.71 78.58 73.24 79.37 72.87C80.48 72.35 81.58 72.22 82.73 71.88C86.54 70.75 90.16 70.33 94.15 70.36C99.24 70.4 103.86 71.17 108.76 72.57C110.7 73.13 112.37 70.24 110.4 69.24C101.41 64.64 88.97 64.78 79.62 68.2C78.33 68.67 76.84 69.08 75.76 69.99L75.52 70.21C74.44 71.25 74.85 74.05 76.74 73.82ZM110.67 80.95C99.72 77.09 87.58 76.15 76.76 81.25C74.13 82.49 76.26 86.19 78.86 85.16C83.67 83.27 89.37 81.55 94.64 81.61C100.1 81.68 104.4 82.89 109.54 84.51C111.85 85.24 112.93 81.75 110.67 80.95Z" fill="#2F2F2F"/>
</svg>
