<?xml version="1.0" encoding="utf-8"?>
<!-- Svg Vector Icons : http://www.onlinewebfonts.com/icon -->
<!DOCTYPE svg PUBLIC "-//W3C//DTD SVG 1.1//EN" "http://www.w3.org/Graphics/SVG/1.1/DTD/svg11.dtd">
<svg version="1.1" xmlns="http://www.w3.org/2000/svg" xmlns:xlink="http://www.w3.org/1999/xlink" x="0px" y="0px" viewBox="0 0 1000 1000" enable-background="new 0 0 1000 1000" xml:space="preserve">
<metadata> Svg Vector Icons : http://www.onlinewebfonts.com/icon </metadata>
<g><g transform="translate(0.000000,511.000000) scale(0.100000,-0.100000)"><path d="M2917.1,4972.9c-137.3-218.3-598.7-992.5-594.1-997c78.8-58.5,560.4-326.3,591.9-326.3c42.8,0,1348.1,585.1,1334.6,598.7c-9,6.7-1208.5,726.9-1255.8,751.7C2957.7,5017.9,2944.1,5013.5,2917.1,4972.9z"/><path d="M4231.5,3534.8c-351.1-159.8-643.7-297.1-648.2-301.6c-11.3-11.3,672.9-416.4,704.4-416.4c22.5,0,1314.3,576.2,1334.6,596.4c15.8,13.5-677.4,416.4-713.4,416.4C4888.6,3829.6,4584.8,3696.9,4231.5,3534.8z"/><path d="M6065.7,2922.7c-87.8-42.8-344.3-159.8-573.9-263.3c-229.6-103.5-443.4-204.8-477.1-225.1l-63-38.3l96.8-51.8c51.7-29.3,171-105.8,267.8-171c288.1-195.8,411.8-191.3,855.2,33.8c164.3,85.5,414.1,202.5,553.6,261.1c137.3,60.8,252.1,117,252.1,123.8c0,31.5-648.2,405.1-699.9,405.1C6245.7,2996.9,6151.2,2963.2,6065.7,2922.7z"/><path d="M7629.8,2171c-63-18-1303.1-580.6-1305.3-591.9c0-6.8,47.3-36,108-67.5c58.5-31.5,171.1-99,252.1-153c303.8-202.5,366.8-209.3,666.2-65.3c110.3,54,378.1,177.8,594.2,274.6c216,96.8,400.6,182.3,409.6,191.3c15.8,11.3-567.1,373.6-654.9,407.4C7679.3,2173.2,7647.8,2175.5,7629.8,2171z"/><path d="M1384.5,1439.5c-27-110.3-821.5-4998.5-814.7-5005.2c4.5-4.5,877.7-150.8,1942.2-324.1c3459.1-567.2,4786.9-785.4,5093-844c164.3-31.5,328.6-56.3,362.3-56.3h60.8l159.8,974.5c90,533.4,272.3,1642.9,407.4,2462.1l245.3,1487.6l294.8,483.9c162,265.6,294.8,492.9,294.8,504.1s-87.8,69.8-193.5,130.5c-175.6,96.8-200.3,105.8-263.3,83.3c-65.3-20.3-1255.8-562.6-1271.6-578.4c-4.5-2.2,112.5-78.8,258.8-168.8c146.3-90,270.1-166.5,274.6-171c31.5-29.2-47.3-24.8-330.8,22.5c-175.5,27-319.6,47.2-319.6,45c0-2.3,137.3-294.8,306.1-650.4c168.8-355.6,301.6-650.4,294.8-654.9c-6.7-6.7-162,11.3-344.3,40.5c-252.1,38.3-346.6,63-384.9,96.8c-27,24.8-177.8,317.4-333.1,652.7c-155.3,333.1-292.6,616.7-301.6,625.6c-22.5,22.5-789.9,157.5-805.7,144c-4.5-6.7,130.5-301.6,299.3-654.9c168.8-355.6,301.6-650.4,297.1-657.1c-6.7-4.5-90,6.7-189,24.7c-96.8,18-252.1,42.8-344.3,56.3c-92.3,13.5-182.3,36-202.6,51.8c-38.3,31.5-369.1,711.2-463.6,954.3c-110.3,281.3-238.6,391.6-495.1,420.9c-74.3,9-209.3,27-299.3,40.5c-90,13.5-168.8,18-175.6,11.3c-6.7-4.5,123.8-297.1,292.6-648.2c166.5-351.1,299.3-643.7,292.6-648.2c-11.3-13.5-641.4,87.8-702.2,112.5c-38.3,15.7-101.3,123.8-236.3,407.3c-103.5,213.8-216.1,461.4-252.1,546.9c-36,87.8-90,195.8-119.3,240.8c-67.5,103.5-245.3,198-378.1,198c-51.8,0-182.3,15.8-290.3,33.8c-108,20.3-200.3,31.5-202.6,29.3c-2.3-4.5,135-299.3,303.8-659.4c171-357.8,308.3-654.9,306.1-657.2c-2.3-2.2-130.5,15.8-285.8,40.5c-153,24.8-310.6,49.5-348.8,56.3c-38.3,4.5-90,31.5-114.8,60.8c-51.8,54-357.8,697.7-447.9,938.5c-117,308.3-213.8,387.1-528.9,427.6C1443,1502.6,1398,1498.1,1384.5,1439.5z M4818.9-761.5c1737.4-283.6,3186.8-522.1,3218.3-528.9l56.3-13.5l-33.8-211.6c-18-117-45-213.8-56.3-213.8c-65.3-2.2-6418.6,1044.3-6436.6,1060c-11.3,9-6.8,96.8,9,204.8c29.3,198,36,220.5,65.3,220.5C1652.3-243.9,3081.4-475.7,4818.9-761.5z M4476.8-3257.4c1737.4-283.6,3168.8-526.6,3182.3-540.1c22.5-22.5-22.5-400.6-49.5-416.4c-6.7-4.5-155.3,15.8-328.6,42.8c-173.3,29.3-1620.4,267.8-3218.3,528.9c-1595.6,261-2905.5,479.4-2912.2,483.9c-11.3,11.3,42.8,393.8,58.5,423.1c4.5,9,31.5,11.3,58.5,4.5C1294.5-2737.5,2739.4-2973.8,4476.8-3257.4z"/></g></g>
</svg>