<?xml version="1.0" encoding="utf-8"?>
<!-- Svg Vector Icons : http://www.onlinewebfonts.com/icon -->
<!DOCTYPE svg PUBLIC "-//W3C//DTD SVG 1.1//EN" "http://www.w3.org/Graphics/SVG/1.1/DTD/svg11.dtd">
<svg version="1.1" xmlns="http://www.w3.org/2000/svg" xmlns:xlink="http://www.w3.org/1999/xlink" x="0px" y="0px" viewBox="0 0 1000 1000" enable-background="new 0 0 1000 1000" xml:space="preserve">
<metadata> Svg Vector Icons : http://www.onlinewebfonts.com/icon </metadata>
<g><path d="M925,817.3c-37.6,5.8-63.1,44.9-111.9,45.2c-57.6,0.5-117.9-49-183.3-49c-53.2,0-110.6,51.9-165.5,51.9c-46.1,0-87.1-47.6-132.3-47.6c-52.6,0-109.1,47.6-157.8,47.6c-79.6,0-162.9-41.8-162.9-41.8L10,680.4c0,0,92.2,43.2,162.9,43.2c45.2,0,92.7-44.7,141.3-44.7c46.4,0,93.8,44.7,141.3,44.7c50.9,0,101.8-43.2,151.5-43.2c44.1,0,141.5,43.2,182.8,43.2c56.8,0,93.7-44.7,141.3-44.7c46.4,0,58.1,44.7,58.1,44.7l0.9,108.7C990,832.3,973.1,809.9,925,817.3z M804.6,557.1c-65.7,0-118.9-53.2-118.9-118.9c0-65.7,53.2-118.9,118.9-118.9c65.7,0,118.9,53.2,118.9,118.9C923.5,503.9,870.3,557.1,804.6,557.1z M737.5,260.7l-239.6,47.4l233.2,350.4c0,0-44.5-31.5-107.6-31.6c-41.3,0-88.9,31.2-142.5,31.1c-50.1-0.1-104.4-31.6-155.6-31.6c-61.6-0.2-119.3,31.2-167.3,31.1c-68.9-0.1-115.5-0.2-115.5-0.2L431.3,432c0,0-87.2-128.6-88.1-129.6c-0.3-0.4-0.4-1-0.8-1.4c-22.4-32.4-16-90.6,42-99.9l328.4-65c37.3-7.4,65.3,11.3,72.6,48.6C792.8,221.9,774.7,253.3,737.5,260.7z"/></g>
</svg>